<svg width="80" height="80" viewBox="0 0 80 80" fill="none" xmlns="http://www.w3.org/2000/svg">
<path d="M36.5087 55.8606C36.9518 56.3031 37.5524 56.5522 38.1792 56.5522C38.8055 56.5522 39.406 56.3037 39.8492 55.8606L48.2824 47.4274C49.2052 46.5045 49.2052 45.0092 48.2824 44.0863C47.3601 43.1641 45.8642 43.1641 44.9419 44.0863L38.1792 50.849L35.0957 47.7655C34.1729 46.8433 32.6775 46.8433 31.7547 47.7655C30.8324 48.6878 30.8324 50.1837 31.7547 51.1066L36.5087 55.8606Z" fill="#47DEFF"/>
<path d="M40.019 68.7256C50.359 68.7256 58.7709 60.3131 58.7709 49.9731C58.7709 39.6332 50.359 31.2213 40.019 31.2213C29.6785 31.2213 21.2666 39.6332 21.2666 49.9731C21.2666 60.3131 29.6791 68.7256 40.019 68.7256ZM40.019 35.9454C47.754 35.9454 54.0468 42.2382 54.0468 49.9731C54.0468 57.7081 47.754 64.0015 40.019 64.0015C32.2841 64.0015 25.9907 57.7081 25.9907 49.9731C25.9907 42.2382 32.2841 35.9454 40.019 35.9454Z" fill="#47DEFF"/>
<path d="M71.46 5.02991H67.1515V2.36206C67.1515 1.05774 66.0938 0 64.7894 0C63.4851 0 62.4274 1.05774 62.4274 2.36206V5.02991H57.7856V2.36206C57.7856 1.05774 56.7279 0 55.423 0C54.1187 0 53.0609 1.05774 53.0609 2.36206V5.02991H26.9769V2.36206C26.9769 1.05774 25.9192 0 24.6143 0C23.3099 0 22.2522 1.05774 22.2522 2.36206V5.02991H17.6105V2.36206C17.6105 1.05774 16.5527 0 15.2478 0C13.9435 0 12.8857 1.05774 12.8857 2.36206V5.02991H8.57666C4.36462 5.02991 0.9375 8.45703 0.9375 12.6697V72.3608C0.9375 76.5729 4.36462 80 8.57666 80H71.46C75.6726 80 79.0991 76.5729 79.0991 72.3608V12.6697C79.0991 8.45703 75.672 5.02991 71.46 5.02991ZM74.3744 72.3608C74.3744 73.9679 73.067 75.2759 71.46 75.2759H8.57666C6.9696 75.2759 5.66162 73.9679 5.66162 72.3608V24.6716H74.3744V72.3608ZM5.66162 12.6697C5.66162 11.062 6.9696 9.75464 8.57666 9.75464H12.8857V12.4225C12.8857 13.7268 13.9435 14.7845 15.2484 14.7845C16.5527 14.7845 17.6105 13.7268 17.6105 12.4225V9.75464H22.2522V12.4225C22.2522 13.7268 23.3099 14.7845 24.6149 14.7845C25.9192 14.7845 26.9769 13.7268 26.9769 12.4225V9.75464H53.0609V12.4225C53.0609 13.7268 54.1187 14.7845 55.4236 14.7845C56.7279 14.7845 57.7856 13.7268 57.7856 12.4225V9.75464H62.4274V12.4225C62.4274 13.7268 63.4851 14.7845 64.7894 14.7845C66.0944 14.7845 67.1521 13.7268 67.1521 12.4225V9.75464H71.46C73.067 9.75464 74.375 11.062 74.375 12.6697V19.9469H5.66162V12.6697Z" fill="#1B1B1B"/>
</svg>
