<svg width="80" height="80" viewBox="0 0 80 80" fill="none" xmlns="http://www.w3.org/2000/svg">
<path d="M28.125 36.25H23.4375H0V40.9375H4.95203L9.63953 80H41.9231L46.6106 40.9375H51.5625V36.25H28.125ZM37.7644 75.3125H13.7981L11.1608 53.3358C11.2028 53.3806 11.2442 53.4263 11.2866 53.4706C15.1705 57.5377 20.1827 59.6875 25.7812 59.6875C31.3762 59.6875 36.3836 57.5373 40.2625 53.4694C40.3102 53.4194 40.3567 53.3681 40.4039 53.3177L37.7644 75.3125ZM25.7812 55C18.0508 55 11.7702 49.3381 9.81531 40.9375H41.7372C39.7525 49.3384 33.4759 55 25.7812 55Z" fill="#1B1B1B"/>
<path d="M76.5202 64.808C74.3263 62.7152 71.4003 61.5625 68.2812 61.5625H65.7812V0H61.0938V61.5625H58.9062C55.7872 61.5625 52.8612 62.7152 50.6673 64.808C48.4233 66.9489 47.1875 69.847 47.1875 72.9688V80H51.875V75.3125H56.5625V80H61.25V75.3125H65.9375V80H70.625V75.3125H75.3125V80H80V72.9688C80 69.847 78.7642 66.9489 76.5202 64.808ZM52.2994 70.625C53.2745 68.0462 55.8303 66.25 58.9062 66.25H68.2812C71.3572 66.25 73.913 68.0462 74.8881 70.625H52.2994Z" fill="#1B1B1B"/>
<path d="M28.6875 0V36.25H24V0H28.6875Z" fill="#47DEFF"/>
</svg>

