<svg width="80" height="80" viewBox="0 0 80 80" fill="none" xmlns="http://www.w3.org/2000/svg">
<path d="M77.6471 0C71.8144 0 4.8858 0 2.35294 0C1.05349 0 0 1.05349 0 2.35294V77.6471C0 78.9465 1.05349 80 2.35294 80H77.6471C78.9465 80 80 78.9465 80 77.6471C80 76.8841 80 2.96627 80 2.35294C80 1.05349 78.9465 0 77.6471 0ZM75.2941 11.514H29.827L27.64 4.70588H75.2941V11.514ZM75.2941 75.2941H4.70588C4.70588 74.0664 4.70588 5.73945 4.70588 4.70588H22.6973L25.8712 14.5867C26.1838 15.5598 27.0891 16.2199 28.1114 16.2199H75.2941V75.2941Z" fill="#1B1B1B"/>
<path d="M15.3246 8.63275H11.6523C10.3528 8.63275 9.29932 9.68624 9.29932 10.9857C9.29932 12.2851 10.3528 13.3386 11.6523 13.3386H15.3246C16.624 13.3386 17.6775 12.2851 17.6775 10.9857C17.6775 9.68624 16.624 8.63275 15.3246 8.63275Z" fill="#1B1B1B"/>
<path d="M57.7653 62.2895H22.2338C20.9343 62.2895 19.8809 63.343 19.8809 64.6424C19.8809 65.9419 20.9343 66.9954 22.2338 66.9954H57.7653C59.0647 66.9954 60.1182 65.9419 60.1182 64.6424C60.1182 63.343 59.0647 62.2895 57.7653 62.2895Z" fill="#1B1B1B"/>
<path d="M23.9719 40.6313H26.099V51.0947H24.2885C22.989 51.0947 21.9356 52.1482 21.9356 53.4477C21.9356 54.7471 22.989 55.8006 24.2885 55.8006H55.7109C57.0104 55.8006 58.0639 54.7471 58.0639 53.4477C58.0639 52.1482 57.0104 51.0947 55.7109 51.0947H53.5839V40.6313H55.7109C57.934 40.6313 58.9145 37.8161 57.173 36.4349L41.3036 23.8481C40.4472 23.1689 39.2358 23.169 38.3793 23.8481L22.51 36.4349C20.7682 37.8164 21.7494 40.6313 23.9719 40.6313ZM30.8049 40.6313H37.4885V51.0947H30.8049V40.6313ZM48.878 51.0947H42.1945V40.6313H48.878V51.0947ZM39.8414 28.6948L48.958 35.9256H30.725L39.8414 28.6948Z" fill="#47DEFF"/>
</svg>
