<svg width="80" height="80" viewBox="0 0 80 80" fill="none" xmlns="http://www.w3.org/2000/svg">
<g clip-path="url(#clip0)">
<path d="M76.8659 41.0588H61.2711C61.047 39.1564 60.6081 37.3191 59.9783 35.5718H77.1077C78.3971 35.5718 79.4463 34.5341 79.4604 33.2447C79.6644 14.6836 64.6816 0 46.6103 0C45.3108 0 44.2573 1.05349 44.2573 2.35294V20.3172C42.5455 19.7583 40.7531 19.3802 38.902 19.206V10.3341C38.902 9.03467 37.8485 7.98118 36.5491 7.98118C16.6468 7.98118 0.538086 24.0863 0.538086 43.9907C0.538086 63.8919 16.6449 80 36.5491 80C44.5161 80 52.0662 77.4502 58.3833 72.6262C59.4225 71.8326 59.6131 70.3456 58.8159 69.3158L53.391 62.3073C55.0026 60.8242 56.4186 59.1319 57.5955 57.2736L64.3684 66.0237C65.1601 67.0464 66.6289 67.2386 67.6572 66.4533C74.8989 60.9225 79.1128 52.5343 79.2187 43.4391C79.2338 42.1291 78.1753 41.0588 76.8659 41.0588ZM48.9632 4.80204C62.519 5.91529 73.7072 16.7889 74.687 30.8657H57.6946C55.5254 27.3831 52.5215 24.472 48.9632 22.4163V4.80204ZM53.5911 70.254C48.5229 73.5587 42.6782 75.2941 36.5491 75.2941C19.2874 75.2941 5.24397 61.2515 5.24397 43.9906C5.24397 27.5209 18.0289 13.981 34.1961 12.7744V19.2056C21.5671 20.3947 11.6515 31.0555 11.6515 43.9904C11.6515 57.7184 22.82 68.8869 36.548 68.8869C41.3497 68.8869 45.8372 67.5191 49.6443 65.1548L53.5911 70.254ZM36.548 64.181C25.4148 64.181 16.3574 55.1236 16.3574 43.9904C16.3574 32.8571 25.4148 23.7997 36.548 23.7997C47.6812 23.7997 56.7386 32.8571 56.7386 43.9904C56.7386 55.1236 47.6812 64.181 36.548 64.181ZM66.5927 61.2091L59.9158 52.5829C60.7089 50.4329 61.2123 48.1445 61.3806 45.7647H74.3726C73.7367 51.7037 70.9925 57.1515 66.5927 61.2091Z" fill="#1B1B1B"/>
<path d="M39.0742 41.6375H34.0209C32.816 41.6375 31.8358 40.6572 31.8358 39.4522C31.8358 38.2436 32.8141 37.2671 34.0202 37.2671C34.0318 37.2673 34.0431 37.2673 34.0544 37.2673H38.8938C39.7572 37.2759 40.6111 37.6637 41.2375 38.3322C42.1263 39.2803 43.615 39.3288 44.5633 38.44C45.5113 37.5513 45.5598 36.0624 44.6712 35.1142C43.0974 33.435 40.9423 32.5615 38.9004 32.5615V30.5118C38.9004 29.2124 37.8469 28.1589 36.5474 28.1589C35.248 28.1589 34.1945 29.2124 34.1945 30.5118V32.5615C29.9526 32.5615 27.1299 35.8398 27.1299 39.4524C27.1299 43.2522 30.2212 46.3435 34.0209 46.3435H39.0742C40.279 46.3435 41.2593 47.3237 41.2593 48.5286C41.2593 49.6902 40.3415 50.7137 39.0406 50.7137H33.7606C33.1509 50.7074 32.5031 50.4875 31.9358 50.0939C30.8681 49.3529 29.402 49.6183 28.6613 50.6858C27.9206 51.7535 28.1856 53.2194 29.2532 53.9603C30.9043 55.1059 32.4141 55.4196 34.1943 55.4196V57.4693C34.1943 58.7688 35.2478 59.8222 36.5473 59.8222C37.8467 59.8222 38.9002 58.7688 38.9002 57.4693V55.4196C43.1771 55.4196 45.965 52.1093 45.965 48.5286C45.9653 44.7288 42.874 41.6375 39.0742 41.6375Z" fill="#47DEFF"/>
</g>
<defs>
<clipPath id="clip0">
<rect width="80" height="80" fill="white"/>
</clipPath>
</defs>
</svg>
