<svg width="96" height="96" viewBox="0 0 96 96" fill="none" xmlns="http://www.w3.org/2000/svg">
<g clip-path="url(#clip0)">
<path d="M88.7788 26.0471L88.7759 25.9724C88.7341 25.0503 88.7063 24.0747 88.6894 22.9892C88.6111 17.696 84.4033 13.3176 79.1094 13.0217C68.0718 12.4058 59.5333 8.80665 52.2376 1.69558L52.1754 1.63626C49.7957 -0.545622 46.2062 -0.545622 43.8258 1.63626L43.7635 1.69558C36.4679 8.80665 27.9294 12.4058 16.8918 13.0225C11.5986 13.3176 7.3901 17.696 7.31173 22.99C7.29562 24.0681 7.26706 25.0437 7.22531 25.9724L7.22091 26.146C7.00631 37.401 6.73971 51.4086 11.4257 64.1227C14.0024 71.1143 17.9047 77.1919 23.0236 82.1878C28.8537 87.8772 36.4899 92.3941 45.7198 95.6123C46.0201 95.717 46.3321 95.802 46.65 95.8657C47.0982 95.9551 47.5494 95.9998 48.0006 95.9998C48.4518 95.9998 48.9037 95.9551 49.3512 95.8657C49.669 95.802 49.9832 95.7163 50.285 95.6108C59.504 92.3867 67.1321 87.8677 72.9571 82.179C78.0737 77.1817 81.9761 71.1026 84.5549 64.1095C89.2585 51.3573 88.9927 37.3234 88.7788 26.0471ZM79.2698 62.1605C74.3274 75.5609 64.2383 84.7637 48.4261 90.2935C48.3697 90.3125 48.3097 90.3294 48.2474 90.3418C48.0841 90.374 47.9178 90.374 47.7523 90.3411C47.6908 90.3286 47.6307 90.3125 47.5751 90.2935C31.746 84.774 21.6503 75.5762 16.7116 62.1751C12.3925 50.4557 12.6372 37.5973 12.8532 26.2536L12.8547 26.1906C12.8986 25.2158 12.9279 24.1948 12.944 23.0727C12.9792 20.7224 14.8513 18.7778 17.206 18.6467C23.4521 18.2981 28.9394 17.091 33.9813 14.9568C39.0167 12.8254 43.4889 9.82105 47.652 5.77223C47.8636 5.59352 48.1383 5.59279 48.3492 5.77223C52.513 9.82105 56.9852 12.8254 62.0198 14.9568C67.0618 17.091 72.5491 18.2981 78.7959 18.6467C81.1506 18.7778 83.0227 20.7224 83.0571 23.0735C83.074 24.2014 83.1033 25.2224 83.1472 26.1906C83.3625 37.5475 83.6013 50.4161 79.2698 62.1605Z" fill="white"/>
<path d="M47.9993 24.0769C34.8069 24.0769 24.0747 34.8098 24.0747 48.0015C24.0747 61.1939 34.8069 71.9268 47.9993 71.9268C61.1909 71.9268 71.9238 61.1939 71.9238 48.0015C71.9238 34.8098 61.1909 24.0769 47.9993 24.0769ZM47.9993 66.293C37.9131 66.293 29.7078 58.0877 29.7078 48.0015C29.7078 37.9153 37.9131 29.71 47.9993 29.71C58.0847 29.71 66.29 37.9153 66.29 48.0015C66.29 58.0877 58.0847 66.293 47.9993 66.293Z" fill="white"/>
<path d="M54.8751 40.574L43.7628 51.6863L40.7466 48.6702C39.6465 47.5701 37.8631 47.5701 36.763 48.6702C35.6636 49.7703 35.6636 51.5537 36.763 52.6531L41.7713 57.6614C42.3214 58.2115 43.0421 58.4861 43.7628 58.4861C44.4835 58.4861 45.2042 58.2115 45.7542 57.6614L58.8587 44.5569C59.9581 43.4568 59.9581 41.6734 58.8587 40.574C57.7586 39.4732 55.9752 39.4732 54.8751 40.574Z" fill="white"/>
</g>
<defs>
<clipPath id="clip0">
<rect width="96" height="96" fill="white"/>
</clipPath>
</defs>
</svg>
