<svg width="80" height="80" viewBox="0 0 80 80" fill="none" xmlns="http://www.w3.org/2000/svg">
<g clip-path="url(#clip0)">
<path d="M7.16041 20.5779C7.63161 21.0491 8.24928 21.2847 8.86696 21.2847C9.48464 21.2847 10.1023 21.0491 10.5735 20.5779L20.6248 10.526C21.5678 9.58362 21.5678 8.0553 20.6248 7.11292C19.6824 6.17053 18.1547 6.17053 17.2117 7.11292L14.1844 10.1403L8.86696 15.4583L4.90699 11.4983C3.96461 10.5559 2.43628 10.5559 1.4939 11.4983C0.551513 12.4407 0.551513 13.969 1.4939 14.9114L7.16041 20.5779Z" fill="#47DEFF"/>
<path d="M35.9436 20.5779C36.4154 21.0491 37.0331 21.2847 37.6502 21.2847C38.2679 21.2847 38.8855 21.0491 39.3567 20.5779L49.4086 10.526C50.351 9.58362 50.351 8.0553 49.4086 7.11292C48.4663 6.17053 46.9379 6.17053 45.9955 7.11292L37.6502 15.4583L33.6902 11.4983C32.7478 10.5559 31.2195 10.5559 30.2771 11.4983C29.3347 12.4407 29.3347 13.969 30.2771 14.9114L35.9436 20.5779Z" fill="#47DEFF"/>
<path d="M64.7278 20.5779C65.199 21.0491 65.8167 21.2847 66.4344 21.2847C67.052 21.2847 67.6697 21.0491 68.1409 20.5779L78.1928 10.526C79.1352 9.58362 79.1352 8.0553 78.1928 7.11292C77.2504 6.17053 75.7221 6.17053 74.7797 7.11292L66.4344 15.4583L62.4744 11.4983C61.532 10.5559 60.0037 10.5559 59.0613 11.4983C58.1189 12.4407 58.1189 13.969 59.0613 14.9114L64.7278 20.5779Z" fill="#47DEFF"/>
<path d="M22.2754 39.1363C22.2754 32.9515 17.2443 27.9204 11.0596 27.9204C4.8755 27.9204 -0.15625 32.9515 -0.15625 39.1363C-0.15625 42.8069 1.61621 46.0717 4.35059 48.1188C1.61621 50.1666 -0.15625 53.4307 -0.15625 57.1014V71.4416C-0.15625 72.7746 0.924074 73.855 2.25708 73.855H19.8621C21.1951 73.855 22.2754 72.7746 22.2754 71.4416V57.1014C22.2754 53.4307 20.503 50.1666 17.7692 48.1188C20.503 46.0717 22.2754 42.8069 22.2754 39.1363ZM11.0596 32.7471C14.5825 32.7471 17.4488 35.6133 17.4488 39.1363C17.4488 42.6592 14.5825 45.5254 11.0596 45.5254C7.53664 45.5254 4.67042 42.6592 4.67042 39.1363C4.67042 35.6133 7.53664 32.7471 11.0596 32.7471ZM17.4488 69.0283H4.67042V57.1014C4.67042 53.5784 7.53664 50.7122 11.0596 50.7122C14.5825 50.7122 17.4488 53.5784 17.4488 57.1014V69.0283Z" fill="#1B1B1B"/>
<path d="M51.0596 39.1363C51.0596 32.9515 46.0285 27.9204 39.8438 27.9204C33.6591 27.9204 28.6279 32.9515 28.6279 39.1363C28.6279 42.8069 30.4004 46.0717 33.1342 48.1188C30.4004 50.1666 28.6279 53.4307 28.6279 57.1014V71.4416C28.6279 72.7746 29.7083 73.855 31.0413 73.855H48.6463C49.9793 73.855 51.0596 72.7746 51.0596 71.4416V57.1014C51.0596 53.4307 49.2871 50.1666 46.5534 48.1188C49.2871 46.0717 51.0596 42.8069 51.0596 39.1363ZM39.8438 32.7471C43.3667 32.7471 46.2329 35.6133 46.2329 39.1363C46.2329 42.6592 43.3667 45.5254 39.8438 45.5254C36.3208 45.5254 33.4546 42.6592 33.4546 39.1363C33.4546 35.6133 36.3208 32.7471 39.8438 32.7471ZM46.2329 69.0283H33.4546V57.1014C33.4546 53.5784 36.3208 50.7122 39.8438 50.7122C43.3667 50.7122 46.2329 53.5784 46.2329 57.1014V69.0283Z" fill="#1B1B1B"/>
<path d="M75.3366 48.1188C78.0709 46.0717 79.8434 42.8069 79.8434 39.1363C79.8434 32.9515 74.8117 27.9204 68.627 27.9204C62.4429 27.9204 57.4111 32.9515 57.4111 39.1363C57.4111 42.8069 59.1842 46.0717 61.918 48.1188C59.1842 50.1666 57.4111 53.4307 57.4111 57.1014V71.4416C57.4111 72.7746 58.4921 73.855 59.8251 73.855H77.4301C78.7625 73.855 79.8434 72.7746 79.8434 71.4416V57.1014C79.8434 53.4307 78.0709 50.1666 75.3366 48.1188ZM68.6276 32.7471C72.1505 32.7471 75.0167 35.6133 75.0167 39.1363C75.0167 42.6592 72.1505 45.5254 68.6276 45.5254C65.1046 45.5254 62.2384 42.6592 62.2384 39.1363C62.2384 35.6133 65.1046 32.7471 68.6276 32.7471ZM75.0167 69.0283H62.2384V57.1014C62.2384 53.5784 65.1046 50.7122 68.6276 50.7122C72.1505 50.7122 75.0167 53.5784 75.0167 57.1014V69.0283Z" fill="#1B1B1B"/>
</g>
<defs>
<clipPath id="clip0">
<rect width="80" height="80" fill="white"/>
</clipPath>
</defs>
</svg>
