<svg width="80" height="80" viewBox="0 0 80 80" fill="none" xmlns="http://www.w3.org/2000/svg">
<path d="M80 54.1406C80 42.4799 72.1429 32.2919 61.0632 29.2218C60.3668 12.9907 46.9464 0 30.5469 0C13.703 0 0 13.703 0 30.5469C0 36.0364 1.46118 41.3812 4.23584 46.0736L0.112305 60.9808L15.0201 56.8579C19.3335 59.4086 24.1992 60.8453 29.2212 61.062C32.2906 72.1423 42.4792 80 54.1406 80C58.7952 80 63.3215 78.7604 67.2986 76.405L79.8871 79.8871L76.405 67.2986C78.7604 63.3215 80 58.7952 80 54.1406ZM15.7599 51.7896L6.83533 54.2584L9.3042 45.3339L8.74146 44.4537C6.08948 40.3046 4.6875 35.4956 4.6875 30.5469C4.6875 16.2878 16.2878 4.6875 30.5469 4.6875C44.8059 4.6875 56.4062 16.2878 56.4062 30.5469C56.4062 44.8059 44.8059 56.4062 30.5469 56.4062C25.5981 56.4062 20.7898 55.0043 16.64 52.3523L15.7599 51.7896ZM73.1647 73.1647L66.5424 71.3324L65.658 71.908C62.2296 74.1351 58.2465 75.3125 54.1406 75.3125C44.9756 75.3125 36.922 69.3866 34.0686 60.8893C48.103 59.2712 59.2712 48.103 60.8899 34.068C69.3866 36.922 75.3125 44.9756 75.3125 54.1406C75.3125 58.2465 74.1351 62.2296 71.908 65.658L71.3324 66.5424L73.1647 73.1647Z" fill="#1B1B1B"/>
<path d="M28.2031 42.3438H32.8906V47.0312H28.2031V42.3438Z" fill="#47DEFF"/>
<path d="M35.2344 23.4375C35.2344 24.7687 34.6924 25.9973 33.7085 26.8976L28.2031 31.9366V37.6562H32.8906V34.0009L36.8732 30.3558C38.8104 28.5828 39.9219 26.0614 39.9219 23.4375C39.9219 18.2678 35.7166 14.0625 30.5469 14.0625C25.3772 14.0625 21.1719 18.2678 21.1719 23.4375H25.8594C25.8594 20.8527 27.962 18.75 30.5469 18.75C33.1317 18.75 35.2344 20.8527 35.2344 23.4375Z" fill="#47DEFF"/>
</svg>
