<svg height='15px' width='15px'  fill="#9da5c1" xmlns="http://www.w3.org/2000/svg" xmlns:xlink="http://www.w3.org/1999/xlink" version="1.1" x="0px" y="0px" viewBox="0 0 64 64" style="enable-background:new 0 0 64 64;" xml:space="preserve"><path d="M9.2,47.8c0.3,0,0.5-0.1,0.7-0.3c0.4-0.4,0.4-1,0-1.4C9.3,45.6,9,44.8,9,44V29h19c0.3,0,0.5-0.1,0.7-0.3l6-6  c0.3-0.3,0.4-0.7,0.2-1.1C34.8,21.2,34.4,21,34,21H9v-0.7c0-1.7,1.3-3,3-3h27.7c0.6,0,1-0.4,1-1s-0.4-1-1-1H12c-2.8,0-5,2.2-5,5V44  c0,1.3,0.5,2.6,1.5,3.5C8.7,47.7,8.9,47.8,9.2,47.8z"></path><path d="M47.7,15.3c-0.6,0-1,0.4-1,1s0.4,1,1,1H52c1.7,0,3,1.3,3,3V21H42c-0.3,0-0.5,0.1-0.7,0.3l-6,6c-0.3,0.3-0.4,0.7-0.2,1.1  c0.2,0.4,0.5,0.6,0.9,0.6h19v15c0,1.7-1.3,3-3,3H16c-0.6,0-1,0.4-1,1s0.4,1,1,1h36c2.8,0,5-2.2,5-5V20.3c0-2.8-2.2-5-5-5H47.7z"></path><path d="M5,56c0.3,0,0.5-0.1,0.7-0.3l49-49c0.4-0.4,0.4-1,0-1.4s-1-0.4-1.4,0l-49,49c-0.4,0.4-0.4,1,0,1.4C4.5,55.9,4.7,56,5,56z"></path></svg>