<svg width="96" height="96" viewBox="0 0 96 96" fill="none" xmlns="http://www.w3.org/2000/svg">
<path d="M90 26.9411H71.016C72.378 26.0111 73.548 25.0871 74.364 24.2591C79.2 19.3931 79.2 11.4731 74.364 6.60709C69.666 1.87909 61.47 1.87309 56.766 6.60709C54.168 9.21709 47.262 19.8431 48.216 26.9411H47.784C48.732 19.8431 41.832 9.21709 39.234 6.60709C34.53 1.87309 26.334 1.87909 21.636 6.60709C16.8 11.4731 16.8 19.3931 21.63 24.2591C22.452 25.0871 23.622 26.0111 24.984 26.9411H6C2.694 26.9411 0 29.6351 0 32.9411V47.9411C0 49.5971 1.344 50.9411 3 50.9411H6V86.9411C6 90.2471 8.694 92.9411 12 92.9411H84C87.306 92.9411 90 90.2471 90 86.9411V50.9411H93C94.656 50.9411 96 49.5971 96 47.9411V32.9411C96 29.6351 93.306 26.9411 90 26.9411ZM25.89 10.8371C27.108 9.61309 28.722 8.94109 30.438 8.94109C32.148 8.94109 33.762 9.61309 34.98 10.8371C39.024 14.9051 43.044 25.2971 41.646 26.7431C41.646 26.7431 41.394 26.9411 40.536 26.9411C36.39 26.9411 28.476 22.6331 25.89 20.0291C23.376 17.4971 23.376 13.3691 25.89 10.8371ZM45 86.9411H12V50.9411H45V86.9411ZM45 44.9411H6V32.9411H40.536H45V44.9411ZM61.02 10.8371C63.456 8.39509 67.68 8.40109 70.11 10.8371C72.624 13.3691 72.624 17.4971 70.11 20.0291C67.524 22.6331 59.61 26.9411 55.464 26.9411C54.606 26.9411 54.354 26.7491 54.348 26.7431C52.956 25.2971 56.976 14.9051 61.02 10.8371ZM84 86.9411H51V50.9411H84V86.9411ZM90 44.9411H51V32.9411H55.464H90V44.9411Z" fill="white"/>
</svg>
