<svg height='320px' width='320px'  fill="#47deff" xmlns="http://www.w3.org/2000/svg" xmlns:xlink="http://www.w3.org/1999/xlink" version="1.1" x="0px" y="0px" viewBox="0 0 96 96" enable-background="new 0 0 96 96" xml:space="preserve"><g><path d="M46.8883,9.1145c0-3.7594-3.0585-6.8179-6.818-6.8179s-6.8179,3.0585-6.8179,6.8179s3.0585,6.8179,6.8179,6.8179   S46.8883,12.8739,46.8883,9.1145z M40.0704,13.9608c-2.6725,0-4.8463-2.1738-4.8463-4.8463s2.1738-4.8463,4.8463-4.8463   s4.8463,2.1738,4.8463,4.8463S42.7429,13.9608,40.0704,13.9608z"></path><polygon points="15.6371,9.9809 15.6371,8.6485 16.97,8.6485 16.97,6.6769 15.6371,6.6769 15.6371,5.3435 13.6655,5.3435    13.6655,6.6769 12.3326,6.6769 12.3326,8.6485 13.6655,8.6485 13.6655,9.9809  "></polygon><polygon points="43.5395,25.2236 43.5395,23.8912 44.8724,23.8912 44.8724,21.9196 43.5395,21.9196 43.5395,20.5862    41.5679,20.5862 41.5679,21.9196 40.235,21.9196 40.235,23.8912 41.5679,23.8912 41.5679,25.2236  "></polygon><polygon points="6.8456,24.128 6.8456,22.7947 8.1785,22.7947 8.1785,20.823 6.8456,20.823 6.8456,19.4906 4.874,19.4906    4.874,20.823 3.5411,20.823 3.5411,22.7947 4.874,22.7947 4.874,24.128  "></polygon><polygon points="29.7645,6.4179 29.7645,5.0846 31.0974,5.0846 31.0974,3.1129 29.7645,3.1129 29.7645,1.7805 27.7928,1.7805    27.7928,3.1129 26.46,3.1129 26.46,5.0846 27.7928,5.0846 27.7928,6.4179  "></polygon><polygon points="56.7768,11.1757 56.7768,9.8433 58.1097,9.8433 58.1097,7.8716 56.7768,7.8716 56.7768,6.5383 54.8052,6.5383    54.8052,7.8716 53.4723,7.8716 53.4723,9.8433 54.8052,9.8433 54.8052,11.1757  "></polygon><polygon points="69.1997,5.8865 69.1997,4.5531 70.5326,4.5531 70.5326,2.5815 69.1997,2.5815 69.1997,1.2491 67.2281,1.2491    67.2281,2.5815 65.8952,2.5815 65.8952,4.5531 67.2281,4.5531 67.2281,5.8865  "></polygon><polygon points="90.0569,13.4948 90.0569,12.1615 91.3898,12.1615 91.3898,10.1898 90.0569,10.1898 90.0569,8.8574 88.0853,8.8574    88.0853,10.1898 86.7524,10.1898 86.7524,12.1615 88.0853,12.1615 88.0853,13.4948  "></polygon><path d="M34.8106,38.9259h-1.7772v1.9716h15.7659v-1.9716h-1.7772c-0.4746-2.9458-3.028-5.2054-6.106-5.2054   C37.8381,33.7205,35.2851,35.9801,34.8106,38.9259z M40.9161,35.6922c1.9863,0,3.6453,1.3832,4.0921,3.2338h-8.1838   C37.2713,37.0754,38.9302,35.6922,40.9161,35.6922z"></path><path d="M58.5131,65.5575H41.8624v6.6553h16.6506V65.5575z M51.7226,67.5292v2.712H48.653v-2.712H51.7226z M43.8341,67.5292h2.8472   v2.712h-2.8472V67.5292z M56.5415,70.2411h-2.8472v-2.712h2.8472V70.2411z"></path><path d="M93.1776,44.0765L95,43.3236L78.4899,3.3873l-1.0243,1.5432c-2.5025,3.7687-5.3908,8.113-8.2299,12.3759l-5.4411-8.863   l-17.713,22.1432l-5.345-3.2856l-6.0603,3.7253L22.9528,11.8602L1,43.134l1.6135,1.1322l13.6051-19.3815l2.5541,4.9629   l3.7767-4.3611l2.4872,3.8566l3.4793-4.61l4.4811,7.3256L13.6438,43.9552l1.032,1.679l3.9678-2.4389v13.3003h-3.6935v1.9813H9.4454   v-5.4059l2.8641,2.8702l1.3959-1.3921l-4.26-4.2698v-1.5393l2.8641,2.8709l1.3959-1.3921l-4.26-4.2706v-1.227l2.2431,2.2485   l1.3959-1.3921l-4.6191-4.6307l-4.6297,4.6297l1.394,1.394l2.2441-2.2441v1.2319l-4.2591,4.2594l1.394,1.394l2.865-2.8654v1.543   l-4.2591,4.2587l1.394,1.394l2.865-2.8647v5.3995h-5.384v1.9716h12.8604v3.5909h3.2025v11.3793h-3.2025v5.5722H8.3927v-7.4899   h3.4788l-1.5996-9.4231H4.3435l-1.5991,9.4231H6.421v7.4899H2.1918v1.9716c21.6298,0,72.235,0,92.282,0v-1.9716h-6.4435v-4.9064   l2.866,2.8732l1.3959-1.3921l-4.2619-4.2729v-1.5385l2.866,2.8732l1.3959-1.3921l-4.2619-4.2729v-1.2267l2.245,2.2504   l1.3959-1.3921l-4.6191-4.6307l-4.6292,4.6297l1.394,1.394l2.2417-2.242v1.2322l-4.2571,4.2571l1.394,1.394l2.8631-2.8631v1.5423   l-4.2571,4.2571l1.394,1.394l2.8631-2.8631v4.8954H74.9539v-7.1953h3.4773l-1.5996-9.4231h-5.9284l-1.5991,9.4231h3.6781v7.1953   h-6.9503v-5.5722h-3.2025V64.0393h3.2025v-2.3949c2.313-1.4226,13.9304-7.8447,27.7142-2.7354l0.6855-1.8484   c-5.022-1.863-9.7376-2.3047-13.878-2.0167V49.664l2.8641,2.8709l1.3959-1.3921l-4.26-4.2706v-1.5387l2.8641,2.8702l1.3959-1.3921   l-4.26-4.2698V41.314l2.2426,2.2484l1.3959-1.3921l-4.6186-4.6307l-4.6297,4.6297l1.394,1.394l2.2441-2.2441v1.2326l-4.2591,4.2587   l1.394,1.394l2.865-2.8647v1.5425l-4.2591,4.2594l1.394,1.394l2.865-2.8654v5.5712c-5.8395,0.7523-10.3201,2.8595-12.55,4.1078   v-2.854h-3.2025V43.1952l3.9678,2.4389l1.032-1.679l-1.3256-0.8149l9.6367-6.0541l-1.7839-7.5977l6.9041-8.1802l-3.0042-4.9657   l1.7714-4.0749L93.1776,44.0765z M25.1637,25.9023l-2.3827-3.6949l-3.5895,4.1455l-1.6933-3.2912l5.341-7.6087l4.5707,7.4721   L25.1637,25.9023z M6.009,66.0495h2.5974l0.9305,5.4798H5.079L6.009,66.0495z M72.5687,66.3441h2.5974l0.9305,5.4798h-4.4579   L72.5687,66.3441z M68.0317,19.1138c-2.4363,3.6565-4.7869,7.1784-6.7738,10.1462l-1.2748-1.982l1.8734-6.224l-3.6355-2.4872   l5.3607-6.7019L68.0317,19.1138z M56.9863,20.1105l2.5665,1.7561l-1.7194,5.7137l2.2282,3.4653   c-1.8013,2.6861-3.186,4.7384-3.883,5.7478l-8.4043-5.1662L56.9863,20.1105z M16.9219,62.0677v-3.6006c0.1646,0,4.4288,0,4.1633,0   v3.6006C20.9304,62.0677,16.6511,62.0677,16.9219,62.0677z M53.7568,62.0677v-3.6006c0.3945,0,4.3117,0,4.1686,0v3.6006H53.7568z    M55.0998,56.4955h-5.4004v-9.09h5.4004V56.4955z M51.7852,58.4671v3.6006h-4.1686v-3.6006   C47.9906,58.4671,51.8864,58.4671,51.7852,58.4671z M45.645,62.0677h-4.1681v-3.6006c0.1308,0,4.3135,0,4.1681,0V62.0677z    M43.4365,56.4955h-5.4004v-9.09h5.4004V56.4955z M39.5052,58.4671v3.6006h-4.1686v-3.6006h0.7278H39.5052z M33.365,58.4671v3.6006   H29.197v-3.6006H33.365z M31.7732,56.4955h-5.3999v-9.09h5.3999V56.4955z M27.2253,58.4671v3.6006h-4.1686v-3.6006   C23.3678,58.4671,27.3928,58.4671,27.2253,58.4671z M16.9219,80.9908v-3.6005h4.1633v3.6005H16.9219z M27.8511,80.9908v-8.4863   c0-1.938,1.5769-3.5149,3.5154-3.5149s3.5154,1.5769,3.5154,3.5149v8.4863H27.8511z M57.9254,77.3903v3.6005h-4.1686v-3.6005   H57.9254z M51.7852,80.9908h-4.1686v-3.6005h4.1686V80.9908z M45.645,80.9908h-4.1681v-3.6005h4.1681V80.9908z M64.0603,80.9908   H59.897v-3.6005h4.1633V80.9908z M60.8578,75.4186H39.5052v5.5722h-2.6518v-8.4863c0-3.0249-2.4617-5.4865-5.487-5.4865   c-3.0253,0-5.487,2.4617-5.487,5.4865v8.4863h-2.8227v-5.5722h-2.9324V64.0393h40.7334V75.4186z M64.0603,58.4671v3.6006   c-0.1481,0-4.4017,0-4.1633,0v-3.6006C60.0517,58.4671,64.331,58.4671,64.0603,58.4671z M60.8578,56.4955h-3.7864V45.4339h-9.3436   v11.0616h-2.3197V45.4339h-9.3436v11.0616h-2.3197V45.4339h-9.3432v11.0616h-3.7864V41.9833l20.1212-12.3678l20.1212,12.3678   V56.4955z M76.0422,16.4908l2.7991,4.6268l-6.6307,7.8567l1.6886,7.1915l-9.2685,5.8232l-6.8015-4.181   c1.7479-2.3921,6.4163-9.4041,20.254-30.2445l0.8969,2.1697L76.0422,16.4908z"></path><rect x="2.1918" y="92.7793" width="92.282" height="1.9716"></rect><rect x="71.0067" y="86.4494" width="2.9575" height="1.9716"></rect><rect x="77.9075" y="86.4494" width="2.9575" height="1.9716"></rect><rect x="91.709" y="86.4494" width="2.5724" height="1.9716"></rect><rect x="84.8082" y="86.4494" width="2.9575" height="1.9716"></rect><rect x="64.106" y="86.4494" width="2.9575" height="1.9716"></rect><rect x="50.3045" y="86.4494" width="2.9575" height="1.9716"></rect><rect x="8.9" y="86.4494" width="2.9575" height="1.9716"></rect><rect x="22.7015" y="86.4494" width="2.9575" height="1.9716"></rect><rect x="15.8008" y="86.4494" width="2.9575" height="1.9716"></rect><rect x="57.2052" y="86.4494" width="2.9575" height="1.9716"></rect><rect x="1.9993" y="86.4494" width="2.9575" height="1.9716"></rect><rect x="43.4038" y="86.4494" width="2.9575" height="1.9716"></rect><rect x="36.503" y="86.4494" width="2.9575" height="1.9716"></rect><rect x="29.6023" y="86.4494" width="2.9575" height="1.9716"></rect></g></svg>