<svg width="80" height="80" viewBox="0 0 80 80" fill="none" xmlns="http://www.w3.org/2000/svg">
<g clip-path="url(#clip0)">
<path d="M55.9222 48.1569C69.1991 48.1569 80.0006 37.3555 80.0006 24.0784C80.0006 10.8014 69.1991 0 55.9222 0C42.6453 0 31.8438 10.8014 31.8438 24.0784C31.8438 37.3555 42.6453 48.1569 55.9222 48.1569ZM55.9222 4.70588C66.6042 4.70588 75.2947 13.3964 75.2947 24.0784C75.2947 34.7605 66.6042 43.451 55.9222 43.451C45.2401 43.451 36.5496 34.7605 36.5496 24.0784C36.5496 13.3964 45.2401 4.70588 55.9222 4.70588Z" fill="#1B1B1B"/>
<path d="M53.4359 26.4314H58.4075C59.5719 26.4314 60.5193 27.3787 60.5193 28.5432C60.5193 29.7112 59.5739 30.655 58.4081 30.655C58.397 30.655 58.3857 30.6549 58.3746 30.6549H53.1804C52.5882 30.6489 51.9582 30.4348 51.4062 30.0518C50.3385 29.3109 48.8724 29.5761 48.1317 30.6436C47.391 31.7114 47.656 33.1772 48.7236 33.9181C50.3446 35.0428 51.8466 35.3606 53.5686 35.3606V36.8624C53.5686 38.1619 54.6221 39.2154 55.9215 39.2154C57.221 39.2154 58.2745 38.1619 58.2745 36.8624V35.3606C62.3846 35.3606 65.2251 32.152 65.2251 28.543C65.2251 24.7837 62.1666 21.7253 58.4073 21.7253H53.4357C52.2713 21.7253 51.3239 20.778 51.3239 19.6135C51.3239 18.4455 52.2693 17.5016 53.4351 17.5016C53.4462 17.5015 53.4575 17.5018 53.4687 17.5018H58.2293C59.0687 17.5101 59.8988 17.8872 60.508 18.5374C61.3967 19.4856 62.8856 19.5338 63.8339 18.6453C64.7819 17.7567 64.8304 16.2676 63.9418 15.3195C62.4577 13.7358 60.3929 12.8172 58.2746 12.7965V11.2941C58.2746 9.99465 57.2211 8.94116 55.9217 8.94116C54.6222 8.94116 53.5688 9.99465 53.5688 11.2941V12.7959C49.4586 12.7959 46.6182 16.0045 46.6182 19.6135C46.6182 23.373 49.6767 26.4314 53.4359 26.4314Z" fill="#47DEFF"/>
<path d="M41.2256 52.3677L22.4695 39.0767C21.6544 38.4991 20.5638 38.4991 19.7486 39.0767L0.992471 52.3677C0.369882 52.8086 0 53.5244 0 54.2874V77.6471C0 78.9465 1.05349 80 2.35294 80H39.8651C41.1646 80 42.218 78.9465 42.218 77.6471V54.2874C42.218 53.5244 41.848 52.8086 41.2256 52.3677ZM17.5454 75.2941V64.5465H24.6726V75.2941H17.5454ZM37.5122 75.2941H29.3785V62.1936C29.3785 60.8941 28.325 59.8406 27.0256 59.8406H15.1925C13.893 59.8406 12.8395 60.8941 12.8395 62.1936V75.2941H4.70588V55.5038L21.109 43.8801L37.5122 55.5038V75.2941Z" fill="#1B1B1B"/>
<path d="M18.7559 52.3567V52.8209C18.7559 54.1204 19.8093 55.1739 21.1088 55.1739C22.4082 55.1739 23.4617 54.1204 23.4617 52.8209V52.3567C23.4617 51.0573 22.4082 50.0038 21.1088 50.0038C19.8093 50.0038 18.7559 51.0573 18.7559 52.3567Z" fill="#47DEFF"/>
<path d="M67.1 52.2637C66.1722 51.3365 64.6765 51.3591 63.7717 52.2637L58.1982 57.837C57.2793 58.7558 57.2793 60.2455 58.1982 61.1645C59.1171 62.0834 60.6069 62.0834 61.5258 61.1645L63.0829 59.6075V61.0974C63.0829 66.8141 58.743 69.8988 54.6596 69.8988C53.3601 69.8988 52.3066 70.9523 52.3066 72.2517C52.3066 73.5512 53.3601 74.6047 54.6596 74.6047C61.7899 74.6047 67.7888 68.9837 67.7888 61.0974V59.6075L69.3458 61.1645C70.2647 62.0834 71.7545 62.0834 72.6734 61.1645C73.5923 60.2458 73.5923 58.7559 72.6734 57.837L67.1 52.2637Z" fill="#47DEFF"/>
<path d="M12.9002 27.7363C13.8116 28.6472 15.306 28.659 16.2285 27.7363L21.802 22.163C22.7209 21.2442 22.7209 19.7545 21.802 18.8354C20.8831 17.9165 19.3934 17.9165 18.4745 18.8354L16.9173 20.3924V18.9026C16.9173 13.1859 21.2572 10.1011 25.3407 10.1011C26.6401 10.1011 27.6936 9.04766 27.6936 7.74821C27.6936 6.44875 26.6401 5.39526 25.3407 5.39526C18.2103 5.39526 12.2114 11.0163 12.2114 18.9026V20.3924L10.6544 18.8354C9.73566 17.9167 8.24577 17.9167 7.32687 18.8354C6.40797 19.7542 6.40797 21.2441 7.32687 22.163L12.9002 27.7363Z" fill="#47DEFF"/>
</g>
<defs>
<clipPath id="clip0">
<rect width="80" height="80" fill="white"/>
</clipPath>
</defs>
</svg>
