<svg width="96" height="96" viewBox="0 0 96 96" fill="none" xmlns="http://www.w3.org/2000/svg">
<g clip-path="url(#clip0)">
<path d="M87.1171 20.1667L83.0763 24.2076C87.8212 31.1713 90.3748 39.3889 90.3748 48C90.3748 59.3188 85.967 69.96 77.9634 77.9636C69.9598 85.9673 59.3186 90.375 47.9998 90.375C39.3886 90.375 31.1711 87.8213 24.2073 83.0766L20.1665 87.1174C28.2386 92.8868 37.8794 96 47.9998 96C60.821 96 72.8748 91.0071 81.941 81.9413C91.0068 72.8753 95.9998 60.8213 95.9998 48C95.9998 37.8797 92.8865 28.2388 87.1171 20.1667Z" fill="white"/>
<path d="M12.9234 71.7924C8.17856 64.8287 5.625 56.6111 5.625 48C5.625 36.6812 10.0328 26.04 18.0364 18.0364C26.04 10.0328 36.6812 5.625 48 5.625C56.6111 5.625 64.8287 8.17875 71.7924 12.9234L75.8333 8.88263C67.7612 3.11325 58.1203 0 48 0C35.1787 0 23.1249 4.99294 14.0588 14.0588C4.99294 23.1248 0 35.1787 0 48C0 58.1203 3.11325 67.7612 8.88263 75.8333L12.9234 71.7924Z" fill="white"/>
<path d="M48.0001 79.8544L82.1521 47.8521L70.1283 23.1876H25.872L13.8481 47.8521L48.0001 79.8544ZM40.8397 44.4064H21.7858L28.3575 30.9255L40.8397 44.4064ZM50.8126 50.0314H71.5996L50.8126 69.5102V50.0314ZM55.0681 44.4064L67.5313 30.6969L74.2145 44.4064H55.0681ZM47.981 43.8399L34.0668 28.8126H61.6423L47.981 43.8399ZM45.1876 50.0314V69.5102L24.4006 50.0314H45.1876Z" fill="white"/>
</g>
<defs>
<clipPath id="clip0">
<rect width="96" height="96" fill="white"/>
</clipPath>
</defs>
</svg>
